<svg width="42" height="42" viewBox="0 0 42 42" fill="none" xmlns="http://www.w3.org/2000/svg">
<rect x="0.375" y="0.375" width="41.25" height="41.25" rx="5.625" fill="white" stroke="#E8E8E8" stroke-width="0.75"/>
<path fill-rule="evenodd" clip-rule="evenodd" d="M15 22C14.45 22 14 22.45 14 23C14 23.55 14.45 24 15 24C15.55 24 16 23.55 16 23C16 22.45 15.55 22 15 22ZM15 26C14.45 26 14 26.45 14 27C14 27.55 14.45 28 15 28C15.55 28 16 27.55 16 27C16 26.45 15.55 26 15 26ZM15 18C14.45 18 14 18.45 14 19C14 19.55 14.45 20 15 20C15.55 20 16 19.55 16 19C16 18.45 15.55 18 15 18ZM12 18.5C11.72 18.5 11.5 18.72 11.5 19C11.5 19.28 11.72 19.5 12 19.5C12.28 19.5 12.5 19.28 12.5 19C12.5 18.72 12.28 18.5 12 18.5ZM15 14C14.45 14 14 14.45 14 15C14 15.55 14.45 16 15 16C15.55 16 16 15.55 16 15C16 14.45 15.55 14 15 14ZM30 19.5C30.28 19.5 30.5 19.28 30.5 19C30.5 18.72 30.28 18.5 30 18.5C29.72 18.5 29.5 18.72 29.5 19C29.5 19.28 29.72 19.5 30 19.5ZM23 16C23.55 16 24 15.55 24 15C24 14.45 23.55 14 23 14C22.45 14 22 14.45 22 15C22 15.55 22.45 16 23 16ZM23 12.5C23.28 12.5 23.5 12.28 23.5 12C23.5 11.72 23.28 11.5 23 11.5C22.72 11.5 22.5 11.72 22.5 12C22.5 12.28 22.72 12.5 23 12.5ZM12 22.5C11.72 22.5 11.5 22.72 11.5 23C11.5 23.28 11.72 23.5 12 23.5C12.28 23.5 12.5 23.28 12.5 23C12.5 22.72 12.28 22.5 12 22.5ZM19 29.5C18.72 29.5 18.5 29.72 18.5 30C18.5 30.28 18.72 30.5 19 30.5C19.28 30.5 19.5 30.28 19.5 30C19.5 29.72 19.28 29.5 19 29.5ZM19 12.5C19.28 12.5 19.5 12.28 19.5 12C19.5 11.72 19.28 11.5 19 11.5C18.72 11.5 18.5 11.72 18.5 12C18.5 12.28 18.72 12.5 19 12.5ZM19 16C19.55 16 20 15.55 20 15C20 14.45 19.55 14 19 14C18.45 14 18 14.45 18 15C18 15.55 18.45 16 19 16ZM19 21.5C18.17 21.5 17.5 22.17 17.5 23C17.5 23.83 18.17 24.5 19 24.5C19.83 24.5 20.5 23.83 20.5 23C20.5 22.17 19.83 21.5 19 21.5ZM27 22C26.45 22 26 22.45 26 23C26 23.55 26.45 24 27 24C27.55 24 28 23.55 28 23C28 22.45 27.55 22 27 22ZM27 26C26.45 26 26 26.45 26 27C26 27.55 26.45 28 27 28C27.55 28 28 27.55 28 27C28 26.45 27.55 26 27 26ZM27 18C26.45 18 26 18.45 26 19C26 19.55 26.45 20 27 20C27.55 20 28 19.55 28 19C28 18.45 27.55 18 27 18ZM27 14C26.45 14 26 14.45 26 15C26 15.55 26.45 16 27 16C27.55 16 28 15.55 28 15C28 14.45 27.55 14 27 14ZM30 22.5C29.72 22.5 29.5 22.72 29.5 23C29.5 23.28 29.72 23.5 30 23.5C30.28 23.5 30.5 23.28 30.5 23C30.5 22.72 30.28 22.5 30 22.5ZM23 26C22.45 26 22 26.45 22 27C22 27.55 22.45 28 23 28C23.55 28 24 27.55 24 27C24 26.45 23.55 26 23 26ZM23 29.5C22.72 29.5 22.5 29.72 22.5 30C22.5 30.28 22.72 30.5 23 30.5C23.28 30.5 23.5 30.28 23.5 30C23.5 29.72 23.28 29.5 23 29.5ZM19 17.5C18.17 17.5 17.5 18.17 17.5 19C17.5 19.83 18.17 20.5 19 20.5C19.83 20.5 20.5 19.83 20.5 19C20.5 18.17 19.83 17.5 19 17.5ZM19 26C18.45 26 18 26.45 18 27C18 27.55 18.45 28 19 28C19.55 28 20 27.55 20 27C20 26.45 19.55 26 19 26ZM23 21.5C22.17 21.5 21.5 22.17 21.5 23C21.5 23.83 22.17 24.5 23 24.5C23.83 24.5 24.5 23.83 24.5 23C24.5 22.17 23.83 21.5 23 21.5ZM23 17.5C22.17 17.5 21.5 18.17 21.5 19C21.5 19.83 22.17 20.5 23 20.5C23.83 20.5 24.5 19.83 24.5 19C24.5 18.17 23.83 17.5 23 17.5Z" fill="#969696"/>
</svg>
